<?xml version="1.0" encoding="UTF-8" standalone="no"?>
<!-- Generator: Adobe Illustrator 21.1.0, SVG Export Plug-In . SVG Version: 6.00 Build 0)  -->

<svg
   xmlns:dc="http://purl.org/dc/elements/1.1/"
   xmlns:cc="http://creativecommons.org/ns#"
   xmlns:rdf="http://www.w3.org/1999/02/22-rdf-syntax-ns#"
   xmlns:svg="http://www.w3.org/2000/svg"
   xmlns="http://www.w3.org/2000/svg"
   xmlns:sodipodi="http://sodipodi.sourceforge.net/DTD/sodipodi-0.dtd"
   xmlns:inkscape="http://www.inkscape.org/namespaces/inkscape"
   version="1.1"
   id="Layer_1"
   x="0px"
   y="0px"
   width="4096"
   height="4096"
   viewBox="0 0 4096 4095.9998"
   xml:space="preserve"
   sodipodi:docname="bhp-logo.svg"
   inkscape:export-filename="G:\Users\suitedoalex\sites\bhp-logo-0.png"
   inkscape:export-xdpi="96"
   inkscape:export-ydpi="96"
   inkscape:version="0.92.2 (5c3e80d, 2017-08-06)"><metadata
     id="metadata10"><rdf:RDF><cc:Work
         rdf:about=""><dc:format>image/svg+xml</dc:format><dc:type
           rdf:resource="http://purl.org/dc/dcmitype/StillImage" /><dc:title></dc:title></cc:Work></rdf:RDF></metadata><defs
     id="defs8" /><sodipodi:namedview
     pagecolor="#ffffff"
     bordercolor="#666666"
     borderopacity="1"
     objecttolerance="10"
     gridtolerance="10"
     guidetolerance="10"
     inkscape:pageopacity="0"
     inkscape:pageshadow="2"
     inkscape:window-width="1920"
     inkscape:window-height="1017"
     id="namedview6"
     showgrid="false"
     inkscape:zoom="0.11597222"
     inkscape:cx="526.7074"
     inkscape:cy="1927.2706"
     inkscape:window-x="-8"
     inkscape:window-y="-8"
     inkscape:window-maximized="1"
     inkscape:current-layer="Layer_1" /><style
     type="text/css"
     id="style2">
	.st0{fill:#FFFFFF;}
</style><path
     id="XMLID_22_"
     class="st0"
     d="m 3512.9043,1841.2857 c 0,195.3206 -156.2564,351.577 -351.5769,351.577 H 2920.432 V 2603.036 H 2643.7278 V 1489.7087 h 514.3442 c 198.5759,0 354.8323,159.5117 354.8323,351.577 z M 3115.7525,1720.838 h -192.0653 v 231.1294 h 192.0653 c 61.8515,0 110.6816,-55.3409 110.6816,-113.937 0,-61.8515 -48.8301,-117.1924 -110.6816,-117.1924 z m -908.2406,-231.1293 v 452.4926 h -384.1305 v -452.4926 h -276.7041 v 1116.5826 h 276.7041 v -410.1732 h 384.1305 v 410.1732 H 2484.216 V 1489.7087 Z m -768.2609,813.8357 c 0,185.5545 -166.0225,302.7469 -341.811,302.7469 H 583.09573 V 1489.7087 h 498.06747 c 182.2993,0 332.045,133.469 332.045,299.4916 0,130.2136 -61.8515,201.8312 -146.4904,253.9166 97.6602,42.3195 172.5332,104.171 172.5332,260.4275 z M 1042.0991,2157.054 H 859.79989 v 214.8527 h 182.29921 c 71.6175,0 110.6817,-48.8302 110.6817,-107.4264 0,-58.5962 -52.0855,-107.4263 -110.6817,-107.4263 z m -26.0428,-436.216 H 859.79989 v 231.1294 h 156.25641 c 71.6176,0 110.6818,-55.3409 110.6818,-113.937 0,-61.8515 -39.0642,-117.1924 -110.6818,-117.1924 z"
     style="fill:#ff6600;stroke-width:32.55343246"
     inkscape:connector-curvature="0"
     inkscape:export-filename="G:\Users\suitedoalex\sites\bhp-logo-4.png"
     inkscape:export-xdpi="13.106658"
     inkscape:export-ydpi="13.106658" /></svg>